:SAMPLES-PER-SECOND 30
:FULLY-SPECIFIED
:DEGREES
299
root  -10.2356 34.8796 5.89281 -169.776 -70.0715 170.67
RightUpLeg  -38.9424 8.32319 6.80523
RightLeg  52.4793 -8.81849 -12.4556
RightFoot  -9.96829 0.0307379 -7.65854
RightToes  -1.16417e-010 0 -3.6325e-017
Spine  8.79158 2.57942 0.917472
Spine1  -0.549579 0.0215964 13.7203
HEad  -17.6335 25.4557 -31.1449
LeftShoulder1  -0.0249259 7.93096 8.99298
LeftArm  -87.5602 -21.3203 -6.09354
LeftForeArm  78.1665 -77.3701 -113.678
LeftHand  -1.36899 0.369337 31.168
RightShoulder  2.70827 6.73943 20.0652
RightArm  -33.2354 15.8282 34.6083
RightForeArm  -26.1066 -5.68905 1.89918
RightHand  -1.51047 5.17143 -16.7838
LeftUpLeg  19.4823 -3.87386 -16.7128
LeftLeg  24.0962 -0.964106 0.0496584
LeftFoot  -28.6947 1.22368 6.99009
LeftToes  6.91183e-011 3.39355e-011 2.1261e-011
300
root  -10.1352 35.5343 5.31145 -167.093 -78.2998 167.636
RightUpLeg  -36.8394 3.6465 7.86332
RightLeg  49.2398 -10.3958 -12.9305
RightFoot  -7.6045 0.15859 -6.39865
RightToes  -1.16417e-010 0 -3.6325e-017
Spine  8.35943 1.08265 0.888838
Spine1  1.20149 -1.72968 13.5969
HEad  -17.9978 20.029 -30.8985
LeftShoulder1  -0.033169 5.86496 7.95468
LeftArm  -79.0949 -24.9755 -15.1267
LeftForeArm  93.1662 -77.0134 -121.148
LeftHand  -1.2693 -0.174769 26.1811
RightShoulder  2.67803 6.89785 19.3131
RightArm  -30.8862 15.2778 33.2264
RightForeArm  -25.623 -5.78609 3.16144
RightHand  -1.65184 6.13741 -16.83
LeftUpLeg  17.6269 -6.95473 -12.5286
LeftLeg  29.0526 -1.08172 -0.464368
LeftFoot  -23.8324 0.33599 1.12437
LeftToes  6.91183e-011 3.39355e-011 2.1261e-011
301
root  -9.72107 36.79 4.31208 -167.696 -87.5211 167.052
RightUpLeg  -32.3285 -0.491042 8.33399
RightLeg  42.119 -14.2734 -13.5936
RightFoot  -0.711598 0.566276 -6.00101
RightToes  -1.16417e-010 0 -3.6325e-017
Spine  10.2824 0.0470435 -1.33621
Spine1  2.07289 -2.96717 13.7135
HEad  -17.3909 13.9431 -25.6667
LeftShoulder1  0.0305321 1.52864 7.6583
LeftArm  -64.8167 -30.1846 -26.5936
LeftForeArm  61.3556 -78.3028 -79.2898
LeftHand  -1.10567 -0.321078 22.5366
RightShoulder  2.61652 6.76996 19.013
RightArm  -31.8579 13.1298 33.2988
RightForeArm  -21.1756 -5.84865 2.77785
RightHand  -1.7083 6.61004 -16.7304
LeftUpLeg  10.9939 -7.99189 -5.9285
LeftLeg  39.0723 -3.20548 -2.22586
LeftFoot  -9.23848 0.0759573 -3.66532
LeftToes  6.91183e-011 3.39355e-011 2.1261e-011
302
root  -9.09427 38.1645 3.15714 -9.81964 -86.9405 7.39676
RightUpLeg  -26.3749 -2.66487 9.43506
RightLeg  31.5332 -16.8021 -11.2687
RightFoot  9.11044 0.807738 -4.3346
RightToes  -1.16417e-010 0 -3.6325e-017
Spine  14.8944 0.63627 -2.25791
Spine1  2.28854 -1.96427 11.6716
HEad  -16.6448 7.81709 -17.5557
LeftShoulder1  0.0733171 -3.2419 8.38802
LeftArm  -51.2629 -34.7978 -37.745
LeftForeArm  14.8769 -62.9927 -22.2373
LeftHand  -1.44384 -2.25688 21.8478
RightShoulder  2.56547 6.79551 18.4159
RightArm  -32.8488 13.3906 33.8078
RightForeArm  -17.0776 -5.90549 2.47995
RightHand  -1.56742 6.40383 -15.646
LeftUpLeg  1.17101 -6.77623 -0.83004
LeftLeg  50.9413 2.19039 3.6393
LeftFoot  9.11669 0.356071 -2.49968
LeftToes  6.91183e-011 3.39355e-011 2.1261e-011
303
root  -8.4874 39.3888 2.08896 27.1845 -84.6779 -30.7058
RightUpLeg  -20.3194 -3.74599 11.3267
RightLeg  19.1586 -10.6759 -3.88693
RightFoot  17.0246 -0.633553 2.91864
RightToes  -1.16417e-010 0 -3.6325e-017
Spine  18.8864 1.64055 -1.68486
Spine1  3.03617 -0.49179 9.93689
HEad  -16.82 3.28443 -10.3892
LeftShoulder1  0.0530373 -6.57109 9.06582
LeftArm  -44.4072 -37.2202 -44.9746
LeftForeArm  7.21509 -35.1365 -7.04139
LeftHand  -1.89775 -4.07546 23.3121
RightShoulder  2.40803 7.281 15.6145
RightArm  -31.6279 17.7403 33.6058
RightForeArm  -16.2073 -6.11476 3.33019
RightHand  -1.44059 6.29821 -14.5612
LeftUpLeg  -9.65016 -5.02642 3.4726
LeftLeg  60.6231 7.62203 14.7208
LeftFoot  18.1469 -0.308165 0.850897
LeftToes  6.91183e-011 3.39355e-011 2.1261e-011
304
root  -8.31669 40.284 1.18272 41.7104 -81.4741 -44.8415
RightUpLeg  -15.2594 0.608149 11.4942
RightLeg  11.3999 1.34579 2.63395
RightFoot  15.3 -3.26999 14.7178
RightToes  -1.16417e-010 0 -3.6325e-017
Spine  19.8288 2.04623 -2.30539
Spine1  4.2589 -0.542465 11.1726
HEad  -17.9106 1.09919 -5.85516
LeftShoulder1  0.119913 -8.69528 8.5469
LeftArm  -42.6081 -36.8831 -47.9006
LeftForeArm  6.56554 -10.9532 -2.59851
LeftHand  -1.71029 -3.36493 22.6128
RightShoulder  2.01901 7.49575 11.1736
RightArm  -31.3399 23.8285 31.4279
RightForeArm  -15.5765 -6.06945 3.94352
RightHand  -1.62042 7.13326 -15.2365
LeftUpLeg  -20.7327 -5.73337 6.80358
LeftLeg  65.6504 7.68661 18.4852
LeftFoot  16.6871 -0.92055 3.2756
LeftToes  6.91183e-011 3.39355e-011 2.1261e-011
305
root  -8.57733 40.78 0.432185 42.8647 -77.113 -44.9256
RightUpLeg  -11.5492 5.13157 12.8641
RightLeg  12.1795 9.20592 2.7068
RightFoot  2.58503 -2.39762 18.3221
RightToes  -1.16417e-010 0 -3.6325e-017
Spine  19.1253 1.66516 -4.00538
Spine1  5.04925 -2.21163 14.771
HEad  -19.1607 0.455398 -3.08184
LeftShoulder1  0.442028 -10.4138 6.03141
LeftArm  -37.6085 -32.9333 -49.1673
LeftForeArm  4.17701 3.46057 -0.820653
LeftHand  -1.31233 -2.6053 19.1954
RightShoulder  1.54934 6.58331 7.84485
RightArm  -35.253 29.1117 26.4212
RightForeArm  -13.1663 -2.38992 3.37295
RightHand  -2.04156 8.72223 -17.0226
LeftUpLeg  -30.4286 -10.3027 8.76171
LeftLeg  65.3531 5.51161 13.6904
LeftFoot  13.9839 -0.600575 2.28377
LeftToes  6.91183e-011 3.39355e-011 2.1261e-011
306
root  -9.09043 40.7641 -0.16926 39.0847 -73.3584 -40.7698
RightUpLeg  -7.21081 7.29453 14.115
RightLeg  20.126 -0.582605 -1.19582
RightFoot  -8.59515 -0.260372 10.0819
RightToes  -1.16417e-010 0 -3.6325e-017
Spine  18.1011 0.936933 -5.63813
Spine1  5.35847 -4.04723 17.9134
HEad  -19.8611 -0.000862435 -0.284619
LeftShoulder1  1.04468 -11.635 1.75102
LeftArm  -32.1525 -26.1473 -50.1781
LeftForeArm  3.59412 6.62506 -2.6584
LeftHand  -1.2174 -2.97437 17.0553
RightShoulder  1.18542 4.84954 6.55335
RightArm  -43.4258 31.7857 20.151
RightForeArm  -11.2409 9.81552 3.52293
RightHand  -2.28502 9.92701 -17.5501
LeftUpLeg  -37.1075 -16.5098 9.06481
LeftLeg  62.7276 3.79585 8.57837
LeftFoot  15.5881 0.182438 -1.12841
LeftToes  6.91183e-011 3.39355e-011 2.1261e-011
307
root  -9.84977 40.2158 -0.652534 37.4336 -71.5789 -39.2928
RightUpLeg  -0.592312 5.38399 14.0608
RightLeg  26.2128 -15.4782 -8.14113
RightFoot  -8.93776 -0.11876 3.43239
RightToes  -1.16417e-010 0 -3.6325e-017
Spine  15.6256 0.833852 -6.88331
Spine1  6.43637 -4.53799 18.7577
HEad  -19.494 -0.892936 3.03021
LeftShoulder1  1.75178 -12.5194 -2.82021
LeftArm  -28.9852 -18.6678 -51.0115
LeftForeArm  2.52685 6.57751 -4.40484
LeftHand  -1.23077 -3.19403 16.8073
RightShoulder  0.936 3.21069 6.26569
RightArm  -55.39 30.7065 14.5129
RightForeArm  -10.436 26.2183 6.06852
RightHand  -2.13331 10.0396 -16.2886
LeftUpLeg  -40.3775 -20.2371 7.6271
LeftLeg  60.3527 3.82295 7.79693
LeftFoot  20.9364 0.477348 -2.13386
LeftToes  6.91183e-011 3.39355e-011 2.1261e-011
308
root  -10.768 39.354 -1.03671 45.5134 -71.0512 -47.0922
RightUpLeg  5.78146 2.24608 13.2837
RightLeg  25.7532 -16.2729 -8.72633
RightFoot  -4.33526 -0.303866 4.3177
RightToes  -1.16417e-010 0 -3.6325e-017
Spine  10.8514 1.77119 -6.59774
Spine1  8.35824 -3.33101 18.5789
HEad  -17.7714 -1.59381 5.57125
LeftShoulder1  2.42408 -13.768 -6.31821
LeftArm  -28.3471 -11.2912 -52.1944
LeftForeArm  0.20306 6.63512 -4.89297
LeftHand  -1.16515 -3.01265 16.2577
RightShoulder  0.774956 1.95021 6.57877
RightArm  -65.5924 27.959 9.00421
RightForeArm  -11.8082 43.9888 11.6517
RightHand  -1.75833 9.1986 -14.2728
LeftUpLeg  -40.0284 -19.0821 6.7941
LeftLeg  58.3104 5.94453 10.77
LeftFoot  23.0821 0.335947 -1.58164
LeftToes  6.91183e-011 3.39355e-011 2.1261e-011
309
root  -11.5364 38.4041 -1.32887 58.86 -70.0456 -59.4042
RightUpLeg  9.35993 1.47234 12.7605
RightLeg  21.4677 -4.3074 -2.28952
RightFoot  -4.32617 -0.485891 7.75245
RightToes  -1.16417e-010 0 -3.6325e-017
Spine  5.69763 2.73707 -6.01897
Spine1  9.92527 -2.14881 18.862
HEad  -15.7039 -0.883063 6.35311
LeftShoulder1  2.98059 -15.1529 -8.49031
LeftArm  -29.4394 -3.80493 -54.0858
LeftForeArm  -2.58677 6.54892 -4.59004
LeftHand  -1.03777 -2.64312 15.1693
RightShoulder  0.637923 0.77657 7.36179
RightArm  -73.7518 27.6014 2.48516
RightForeArm  -11.0752 57.8626 19.0949
RightHand  -1.4815 8.19189 -12.967
LeftUpLeg  -36.5038 -15.4899 6.96363
LeftLeg  55.8337 10.1918 16.1233
LeftFoot  14.584 0.0939632 -0.706368
LeftToes  6.91183e-011 3.39355e-011 2.1261e-011
310
root  -11.9769 37.4192 -1.5408 62.5666 -68.6049 -62.5342
RightUpLeg  10.6202 3.82025 12.5124
RightLeg  20.1905 7.24398 2.65496
RightFoot  -9.69111 -0.237088 12.5667
RightToes  -1.16417e-010 0 -3.6325e-017
Spine  3.57434 2.14091 -7.46196
Spine1  10.8141 -3.16919 19.7085
HEad  -15.9597 1.43387 6.18476
LeftShoulder1  3.37289 -15.4315 -10.5472
LeftArm  -31.0124 2.04596 -55.5627
LeftForeArm  -7.07408 6.37584 -3.98027
LeftHand  -0.961437 -2.10371 15.0649
RightShoulder  0.478024 -0.361605 7.69673
RightArm  -81.9441 30.3237 -3.39627
RightForeArm  -4.33664 67.0083 29.0111
RightHand  -1.38321 7.61484 -12.6407
LeftUpLeg  -31.2897 -14.4119 5.99101
LeftLeg  53.0296 14.8885 20.5773
LeftFoot  -2.26584 -0.174031 3.14309
LeftToes  6.91183e-011 3.39355e-011 2.1261e-011
311
root  -12.1482 36.6989 -1.62394 53.4047 -67.8538 -53.7794
RightUpLeg  11.765 6.05608 11.9187
RightLeg  21.3465 8.99399 3.64685
RightFoot  -16.3217 0.513484 14.7582
RightToes  -1.16417e-010 0 -3.6325e-017
Spine  4.91187 0.171534 -10.437
Spine1  12.216 -5.90476 20.2106
HEad  -20.0356 3.86916 6.3175
LeftShoulder1  3.6432 -14.3459 -13.4233
LeftArm  -32.0251 3.08492 -55.5057
LeftForeArm  -13.0369 6.15185 -3.3401
LeftHand  -1.00225 -1.63677 16.6619
RightShoulder  0.354808 -1.11686 7.36776
RightArm  -88.8753 32.1982 -5.88325
RightForeArm  11.0662 73.9834 45.9007
RightHand  -1.31079 7.34193 -12.2438
LeftUpLeg  -27.1156 -15.8445 3.1766
LeftLeg  50.662 17.642 22.0365
LeftFoot  -15.0761 0.37416 9.73581
LeftToes  6.91183e-011 3.39355e-011 2.1261e-011
312
root  -12.0718 36.786 -1.34171 44.3581 -67.993 -44.8014
RightUpLeg  12.2407 6.51719 10.6817
RightLeg  21.9733 4.81219 1.92377
RightFoot  -17.1845 0.581273 13.607
RightToes  -1.16417e-010 0 -3.6325e-017
Spine  6.0992 -1.05441 -10.7652
Spine1  14.9904 -7.41551 18.9424
HEad  -25.7451 5.16645 6.41998
LeftShoulder1  3.85978 -13.5049 -15.903
LeftArm  -32.324 -1.18586 -55.2517
LeftForeArm  -17.31 5.96432 -2.81955
LeftHand  -1.13782 -1.80004 18.4665
RightShoulder  0.351046 -1.1782 7.60482
RightArm  -90.861 31.0766 -3.89023
RightForeArm  37.5674 77.9456 74.226
RightHand  -1.20074 7.16199 -11.4052
LeftUpLeg  -25.2768 -13.1833 0.0373911
LeftLeg  47.2563 16.7915 18.8903
LeftFoot  -16.4996 0.75043 15.4145
LeftToes  6.91183e-011 3.39355e-011 2.1261e-011
313
root  -11.6909 37.7849 -0.53332 44.6736 -70.8123 -44.6724
RightUpLeg  9.94168 7.02692 8.048
RightLeg  23.2541 0.40302 -0.0208893
RightFoot  -8.58912 -0.313133 11.3669
RightToes  -1.16417e-010 0 -3.6325e-017
Spine  6.46238 -0.542803 -6.91076
Spine1  17.2324 -5.84112 14.9819
HEad  -29.4638 5.80497 4.58934
LeftShoulder1  4.00921 -13.9602 -16.2138
LeftArm  -32.3479 -7.36018 -56.7302
LeftForeArm  -17.9437 6.08007 -2.4816
LeftHand  -1.26593 -2.40969 18.95
RightShoulder  0.539643 -0.203114 8.93696
RightArm  -86.8431 29.9513 1.46157
RightForeArm  55.6045 78.4274 92.701
RightHand  -1.11578 6.90557 -10.8392
LeftUpLeg  -23.5104 -3.04825 -2.9275
LeftLeg  39.6959 11.8374 10.9063
LeftFoot  -8.99742 -0.336155 18.1276
LeftToes  6.91183e-011 3.39355e-011 2.1261e-011
